<svg version="1.1" viewBox="0.0 0.0 134.3989501312336 134.01312335958005" fill="none" stroke="none" stroke-linecap="square" stroke-miterlimit="10" xmlns:xlink="http://www.w3.org/1999/xlink" xmlns="http://www.w3.org/2000/svg"><clipPath id="p.0"><path d="m0 0l134.39896 0l0 134.01312l-134.39896 0l0 -134.01312z" clip-rule="nonzero"/></clipPath><g clip-path="url(#p.0)"><path fill="#000000" fill-opacity="0.0" d="m0 0l134.39896 0l0 134.01312l-134.39896 0z" fill-rule="evenodd"/><path fill="#fdf0d5" d="m0.7270341 67.00525l0 0c0 -36.146385 29.760727 -65.44882 66.47244 -65.44882l0 0c17.629585 0 34.53711 6.8954806 47.003113 19.169516c12.465996 12.2740345 19.46933 28.921198 19.46933 46.279305l0 0c0 36.146385 -29.760727 65.44882 -66.47244 65.44882l0 0c-36.711716 0 -66.47244 -29.302437 -66.47244 -65.44882z" fill-rule="evenodd"/><path fill="#000000" fill-opacity="0.0" d="m41.81905 21.464567l73.133865 0l0 74.3307l-73.133865 0z" fill-rule="evenodd"/><path fill="#000000" d="m62.19405 54.812687l0 4.703125q3.6249962 -3.28125 5.421871 -4.21875q1.8125 -0.9375 3.34375 -0.9375q1.65625 0 3.078125 1.125q1.4375 1.109375 1.4375 1.671875q0 0.421875 -0.28125 0.703125q-0.265625 0.28125 -0.6875 0.28125q-0.234375 0 -0.390625 -0.078125q-0.140625 -0.078125 -0.5625 -0.5q-0.78125 -0.78125 -1.359375 -1.0625q-0.5625 -0.28125 -1.125 -0.28125q-1.21875 0 -2.9375 0.96875q-1.703125 0.96875 -5.937496 4.75l0 10.187504l8.234371 0q0.6875 0 0.96875 0.265625q0.296875 0.25 0.296875 0.671875q0 0.390625 -0.296875 0.65625q-0.28125 0.265625 -0.96875 0.265625l-14.578121 0q-0.671875 0 -0.96875 -0.25q-0.28125 -0.265625 -0.28125 -0.65625q0 -0.375 0.28125 -0.625q0.28125 -0.265625 0.96875 -0.265625l4.484375 0l0 -15.484379l-3.421875 0q-0.671875 0 -0.96875 -0.265625q-0.28125 -0.265625 -0.28125 -0.6875q0 -0.40625 0.28125 -0.671875q0.28125 -0.265625 0.96875 -0.265625l5.28125 0z" fill-rule="nonzero"/></g></svg>